<?xml version="1.0"?>
<svg width="500" height="500" xmlns="http://www.w3.org/2000/svg" xmlns:svg="http://www.w3.org/2000/svg">
 <g class="layer">
  <title>Layer 1</title>
  <path d="m537.04,136.75l-0.07,-35.03l37.22,17.59l-37.15,17.44z" fill="#1f1e2c" id="#path14437"/>
  <path d="m537.74,137.1l1.69,-35.38l-53.41,5.88l51.72,29.5z" fill="#554c4d" id="#path14439"/>
  <path d="m540.64,102.68l-12.49,-17.89l-43.13,23.06l55.62,-5.17z" fill="#6c6877" id="#path4158"/>
  <path d="m488.15,74.85l41.08,10.34l-43.21,22.91l2.13,-33.25z" fill="#8a8895" id="#path4160"/>
  <path d="m488.75,74.83l-49.2,14.23l47.21,19.79l1.99,-34.02z" fill="#b5afb6" id="#path4166"/>
  <path d="m470.22,133.23l-29.43,-44.13l46.97,18.5l-17.54,25.63z" fill="#774220" id="#path4168"/>
  <path d="m468.81,133.94l48.51,23.74l-30.06,-50.82l-18.45,27.08z" fill="#8d5429" id="#path4174"/>
  <path d="m538.1,137.1l-21.44,19.88l-30.39,-49.62l51.83,29.74z" fill="#6c6877" id="#path4176"/>
  <path d="m538.1,137.1l-22.23,19.48l16.12,22.52l6.11,-42z" fill="#1f1e2c" id="#path4178"/>
  <path d="m509.08,108.94l6.6,2.42l-7.16,6.94l0.56,-9.36z" fill="#020202" id="#path4213"/>
  <path d="m518.72,117.64l-3.04,-6.35l-7.16,7.01l10.2,-0.66z" fill="#020202" id="#path4215"/>
  <path d="m518.72,117.58l-2.04,7.52l-8.16,-6.8l10.2,-0.72z" fill="#020202" id="#path4217"/>
  <path d="m508.77,129.02l8.03,-3.92l-8.28,-6.8l0.25,10.72z" fill="#020202" id="#path4219"/>
  <path d="m508.77,129.02l-6.76,-3.3l6.51,-7.42l0.25,10.72z" fill="#020202" id="#path4221"/>
  <path d="m498.82,119.07l3.19,6.65l6.51,-7.42l-9.7,0.77z" fill="#020202" id="#path4223"/>
  <path d="m498.82,119.07l3.43,-7.53l6.27,6.76l-9.7,0.77z" fill="#020202" id="#path4225"/>
  <path d="m509.14,108.88l-6.89,2.66l6.27,6.76l0.62,-9.42z" fill="#020202" id="#path4227"/>
  <path d="m518.2,225.14l-2.33,-69.96l16.12,23.92l-13.79,46.04z" fill="#444140" id="#path4229"/>
  <path d="m518.45,224.14l-1.88,-70.02l-41.53,117.74l43.41,-47.72z" fill="#1c202c" id="#path4231"/>
  <path d="m474.93,224.14l40.94,-67.56l-41.08,116.28l0.14,-48.72z" fill="#4f4d5b" id="#path4233"/>
  <path d="m475.18,225.64l40.69,-69.06l-37.6,11.08l-3.09,57.98z" fill="#6c6877" id="#path4235"/>
  <path d="m478.66,168.19l37.21,-11.61l-47.05,-23.48l9.84,35.09z" fill="#8a8895" id="#path4237"/>
  <path d="m412.45,125.16l28.36,-36.31l30.82,45.3l-59.18,-8.99z" fill="#6b3c1e" id="#path4387"/>
  <path d="m430.12,182.96l-18.71,-59.79l58.82,9.22l-40.11,50.57z" fill="#8e5327" id="#path4389"/>
  <path d="m429.77,183.31l49.27,-13.92l-8.81,-37l-40.46,50.92z" fill="#b2b1b7" id="#path4391"/>
  <path d="m430.83,182.61l-16.95,-59.79l-20.68,43.69l37.63,16.1z" fill="#9b5c30" id="#path4399"/>
  <path d="m386.45,128.54l27.43,-5.72l-19.42,44.49l-8.01,-38.77z" fill="#af6630" id="#path4401"/>
  <path d="m340.44,137.24l46.33,-8.7l8.19,39.02l-54.52,-30.32z" fill="#8e5327" id="#path4403"/>
  <path d="m429.77,183.31l49.42,-15.33l-3.34,59.02l-46.08,-43.69z" fill="#8a8895" id="#path4405"/>
  <path d="m428.49,182.11l2.62,47.63l45.33,-3.65l-47.95,-43.98z" fill="#c6c5cd" id="#path4407"/>
  <path d="m404.56,279.17l26.55,-49.43l44.83,-5.14l-71.38,54.57z" fill="#898890" id="#path4409"/>
  <path d="m404.31,278.92l71.07,-53.91l-0.33,47.14l-70.74,6.77z" fill="#6c6877" id="#path4514"/>
  <path d="m475.44,271.7l-44.25,29.73l-27.02,-22.82l71.27,-6.91z" fill="#8a8991" id="#path4516"/>
  <path d="m341.14,137.24l-32.42,8.09l91.17,22.58l-58.75,-30.67z" fill="#a6602f" id="#path4518"/>
  <path d="m332,183.66l65.14,-16.77l-88.7,-22.19l23.56,38.96z" fill="#8e5327" id="#path4520"/>
  <path d="m347.19,199.3l-17.02,-16.34l65.5,-16.45l-48.48,32.79z" fill="#a6602f" id="#path4522"/>
  <path d="m368.58,225.17l-23.49,-25.79l50.58,-32.87l-27.09,58.66z" fill="#8a5027" id="#path4524"/>
  <path d="m367.87,223.76l64.29,-41.85l-37.2,-15.75l-27.09,57.6z" fill="#6b3c1e" id="#path4526"/>
  <path d="m367.87,223.76l63.24,-42.21l-53.03,58.81l-10.21,-16.6z" fill="#924f24" id="#path4528"/>
  <path d="m431.88,229.03l-1.33,-48.2l-53.35,60.06l54.68,-11.86z" fill="#b2b1b7" id="#path4548"/>
  <path d="m431.88,229.03l-27.5,51l-26.3,-39.31l53.8,-11.69z" fill="#c6c5cd" id="#path4550"/>
  <path d="m368.22,321.18l37.92,-42.91l26.45,22.59l-64.37,20.32z" fill="#6c6877" id="#path4490"/>
  <path d="m347.12,284.95l57.26,-4.92l-35.44,41.58l-21.82,-36.66z" fill="#b2b1b7" id="#path4701"/>
  <path d="m348.18,286.71l-7.46,-26.37l64.09,19.77l-56.63,6.6z" fill="#c4c3c9" id="#path4488"/>
  <path d="m377.02,238.88l-35.24,22.51l63.38,19.07l-28.14,-41.58z" fill="#b2b1b7" id="#path4703"/>
  <path d="m348.88,285.66l-33.48,21.8l53.54,14.15l-20.06,-35.95z" fill="#8a8991" id="#path4705"/>
  <path d="m348.88,285.66l-31.72,21.8l-12.23,-46.35l43.95,24.55z" fill="#b2b1b7" id="#path4707"/>
  <path d="m348.88,285.66l-6.75,-24.62l-39.69,-1.27l46.44,25.89z" fill="#8a8895" id="#path4718"/>
  <path d="m379.48,238.88l-37.35,22.51l-37.2,-0.63l74.55,-21.88z" fill="#706671" id="#path4720"/>
  <path d="m378.07,239.94l-51.3,-2.05l-21.84,22.87l73.14,-20.82z" fill="#8e5226" id="#path4722"/>
  <path d="m380.18,241.34l-54.9,-2.17l43.66,-15.34l11.24,17.51z" fill="#b3afb7" id="#path4724"/>
  <path d="m348.24,199.43l-20.88,40.51l41.58,-16.11l-20.7,-24.4z" fill="#7c7a89" id="#path4726"/>
  <path d="m330.59,181.2l-3.23,58.74l21.18,-40.48l-17.95,-18.26z" fill="#8a8895" id="#path4728"/>
  <path d="m331.65,181.91l-4.29,57.85l-26.65,-56.02l30.94,-1.83z" fill="#b2b0b7" id="#path4730"/>
  <path d="m331.65,181.91l-22.23,-36.93l-8.71,38.76l30.94,-1.83z" fill="#8a8895" id="#path4732"/>
  <path d="m269.75,156.23l39.67,-11.25l-7.66,38.76l-32.01,-27.51z" fill="#b2b1b7" id="#path4791"/>
  <path d="m305.62,260.69l-12.03,37.63l24,9.57l-11.97,-47.2z" fill="#c3c2ca" id="#path4793"/>
  <path d="m305.97,259.98l-44.57,22.96l32.98,16.16l11.59,-39.12z" fill="#8a8895" id="#path4795"/>
  <path d="m307.47,259.98l-76.48,9.85l30.81,13.35l45.67,-23.2z" fill="#757381" id="#path4806"/>
  <path d="m306.47,259.98l-75.48,10.2l-24.19,-38.96l99.67,28.76z" fill="#b2b1b7" id="#path4808"/>
  <path d="m305.97,259.98l-58.8,-30.24l-40.37,1.83l99.17,28.41z" fill="#693d1f" id="#path4810"/>
  <path d="m305.97,259.98l-60.21,-29.89l16.26,-38.61l43.95,68.5z" fill="#8e5327" id="#path5485"/>
  <path d="m305.97,260.73l-4.64,-77.06l-40.37,7.81l45.01,69.25z" fill="#a6602f" id="#path4812"/>
  <path d="m305.48,261.08l-4.15,-77.41l26.46,55.64l-22.31,21.77z" fill="#6d3c1c" id="#path4492"/>
  <path d="m270.45,156.23l31.23,27.44l-40.36,9.21l9.13,-36.65z" fill="#8b5528" id="#path4814"/>
  <path d="m270.45,156.23l-24.69,7.39l15.56,29.26l9.13,-36.65z" fill="#6b3c1e" id="#path4816"/>
  <path d="m175.84,179.09l70.27,-14.77l15.21,28.56l-85.48,-13.79z" fill="#a6602f" id="#path4836"/>
  <path d="m175.84,179.09l70.27,52.76l15.56,-38.97l-85.83,-13.79z" fill="#6b3c1e" id="#path4838"/>
  <path d="m175.84,179.09l70.63,51.35l-38.96,1.13l-31.67,-52.48z" fill="#a75f2c" id="#path4840"/>
  <path d="m175.84,179.09l-113.42,11.46l145.79,41.73l-32.37,-53.19z" fill="#6a3b1d" id="#path4851"/>
  <path d="m178.33,179.09l-154.14,0.35l40.77,11.9l113.37,-12.25z" fill="#512d16" id="#path4853"/>
  <path d="m175.84,179.09l-141.45,-15.82l-9.77,16.6l151.22,-0.78z" fill="#9e5c2a" id="#path4855"/>
  <path d="m372.8,332.08l-57.4,-24.62l53.18,13.44l4.22,11.18z" fill="#8a8991" id="#path4895"/>
  <path d="m372.27,330.32l21.96,49.22l-44.29,-57.93l22.33,8.71z" fill="#8a8991" id="#path4897"/>
  <path d="m395.6,379.74l-14.94,2.79l-30.72,-60.92l45.66,58.13z" fill="#a4a3a8" id="#path4921"/>
  <path d="m394.96,379.74l-9.08,-14.87l55.3,23.91l-46.22,-9.04z" fill="#88878d" id="#path4923"/>
  <path d="m369.28,387.3l8.72,-10.55l3.95,5.56l-12.67,4.99z" fill="#a4a3a8" id="#path4925"/>
  <path d="m317.39,316.98l-44.37,-28.51l43.94,19.03l0.43,9.48z" fill="#514f5d" id="#path4927"/>
  <path d="m317.53,313.76l-21.81,-11.54l15.21,78.9l6.6,-67.36z" fill="#514f5d" id="#path4929"/>
  <path d="m317.04,313.51l8.53,55.6l-14.64,12.01l6.11,-67.61z" fill="#898794" id="#path4931"/>
  <path d="m364.29,389.86l-38.72,-20.75l-15.14,11.51l53.86,9.24z" fill="#898794" id="#path4933"/>
  <path d="m288.69,383.39l19.47,-16.77l3.77,14l-23.24,2.77z" fill="#504c5d" id="#path4935"/>
 </g>
</svg>