<?xml version="1.0"?>
<svg width="500" height="500" xmlns="http://www.w3.org/2000/svg" xmlns:svg="http://www.w3.org/2000/svg">
 <g class="layer">
  <title>Layer 1</title>
  <path d="m518.19,91.33l-9.72,-7.14l-39.95,4.7l49.67,2.44z" fill="#040404" id="#path14437"/>
  <path d="m469.05,88.75l49.21,2.52l-49.95,27.21l0.74,-29.73z" fill="#040404" id="#path14439"/>
  <path d="m469.8,88.94l-37.77,6.44l37.02,24.04l0.75,-30.48z" fill="#484f61" id="#path4158"/>
  <path d="m469.05,89.13l-37.21,6.81l15.14,-18.99l22.07,12.18z" fill="#606873" id="#path4160"/>
  <path d="m432.77,74.35l-0.56,21.41l15.15,-18.81l-14.59,-2.6z" fill="#717e87" id="#path4166"/>
  <path d="m432.77,74.16l0.38,21.03l-32.18,-9.07l31.8,-11.96z" fill="#82909a" id="#path4168"/>
  <path d="m396.74,119.37l38.09,4.82l-33.64,-37.99l-4.45,33.17z" fill="#808e99" id="#path4174"/>
  <path d="m432.77,95.11l2.62,29.83l-34.61,-39.19l31.99,9.36z" fill="#606873" id="#path4176"/>
  <path d="m432.39,94.93l2.44,29.63l33.66,-5.33l-36.1,-24.3z" fill="#808e99" id="#path4178"/>
  <path d="m438,95.39l-5.51,-4.5l4.95,-2.15l0.56,6.65z" fill="#151515" id="#path4213"/>
  <path d="m438,95.39l-5.23,-4.68l-1.59,5.04l6.82,-0.36z" fill="#151515" id="#path4215"/>
  <path d="m438.56,95.21l-5.04,6.53l-2.16,-6.45l7.2,-0.08z" fill="#151515" id="#path4217"/>
  <path d="m438,95.39l-4.67,6.35l5.05,0.47l-0.38,-6.82z" fill="#151515" id="#path4219"/>
  <path d="m438,95.39l5.25,5.88l-5.43,0.94l0.18,-6.82z" fill="#151515" id="#path4221"/>
  <path d="m437.63,95.02l5.34,6.35l2.33,-5.43l-7.67,-0.92z" fill="#151515" id="#path4223"/>
  <path d="m438,95.39l4.78,-5.06l2.33,5.8l-7.11,-0.74z" fill="#151515" id="#path4225"/>
  <path d="m437.82,95.86l4.96,-5.53l-5.53,-1.87l0.57,7.4z" fill="#151515" id="#path4227"/>
  <path d="m397.27,120.16l-26.19,8.53l30.11,-42.49l-3.92,33.96z" fill="#606873" id="#path4229"/>
  <path d="m460.17,156.03l-24.81,-32l33.66,-5.07l-8.85,37.07z" fill="#606873" id="#path4231"/>
  <path d="m460.43,155.77l-25.6,-33.06l-9.19,28l34.79,5.06z" fill="#808e99" id="#path4233"/>
  <path d="m395.89,119l40,4.24l-9.99,27.47l-30.01,-31.71z" fill="#90a1a9" id="#path4235"/>
  <path d="m396.41,118.47l-10.78,37.84l41.86,-5.34l-31.08,-32.5z" fill="#808e99" id="#path4237"/>
  <path d="m397.74,118.47l-12.11,37.84l-15.02,-27.82l27.13,-10.02z" fill="#6f7782" id="#path4387"/>
  <path d="m362.02,164.5l24.93,-8.19l-16.07,-27.82l-8.86,36.01z" fill="#5f6973" id="#path4389"/>
  <path d="m459.9,154.98l7.73,33.07l-41.99,-38.4l34.26,5.33z" fill="#5f6772" id="#path4391"/>
  <path d="m410.96,169.79l57.2,18.53l-42.26,-38.41l-14.94,19.88z" fill="#808e99" id="#path4399"/>
  <path d="m411.23,170.32l-25.87,-14.28l41.87,-6.92l-16,21.2z" fill="#616b77" id="#path4401"/>
  <path d="m410.7,169l56.93,19.05l-25.33,21.65l-31.6,-40.7z" fill="#606873" id="#path4403"/>
  <path d="m410.7,168.73l5.88,54.5l25.99,-14.06l-31.87,-40.44z" fill="#828d96" id="#path4405"/>
  <path d="m410.96,168.47l5.88,54.76l-35.64,3.4l29.76,-58.16z" fill="#060606" id="#path4407"/>
  <path d="m411.23,169l-25.87,-13.75l-4.16,71.38l30.03,-57.63z" fill="#7e8f99" id="#path4409"/>
  <path d="m355.68,215.55l30.21,-61.1l-4.43,72.71l-25.78,-11.61z" fill="#606873" id="#path4514"/>
  <path d="m356.21,215.55l29.68,-61.1l-44.9,42.29l15.22,18.81z" fill="#808e99" id="#path4516"/>
  <path d="m362.02,164.23l22.81,-8.98l-44.11,42.02l21.3,-33.04z" fill="#485162" id="#path4518"/>
  <path d="m362.82,163.71l-43.33,25.4l22.82,7.36l20.51,-32.76z" fill="#606873" id="#path4520"/>
  <path d="m472.34,209.47l-4.44,-21.42l-26.65,21.65l31.09,-0.23z" fill="#808e99" id="#path4522"/>
  <path d="m472.34,208.94l-10.53,26.99l-20.04,-27.55l30.57,0.56z" fill="#707e87" id="#path4524"/>
  <path d="m417.31,222.7l45.03,13.23l-20.04,-27.29l-24.99,14.06z" fill="#606873" id="#path4526"/>
  <path d="m416.52,222.17l46.09,12.97l-11.84,22.7l-34.25,-35.67z" fill="#8fa3aa" id="#path4528"/>
  <path d="m417.05,222.17l-10.52,35.72l44.77,0.22l-34.25,-35.94z" fill="#c0cfd6" id="#path4548"/>
  <path d="m417.31,221.37l-9.99,36.52l-36.18,-6.39l46.17,-30.13z" fill="#a4b7ba" id="#path4550"/>
  <path d="m417.58,221.64l-36.98,4.77l-9.46,25.61l46.44,-30.38z" fill="#342e2f" id="#path4490"/>
  <path d="m311.5,268.2l69.37,-41.26l-9.73,25.08l-59.64,16.18z" fill="#070707" id="#path4701"/>
  <path d="m312.82,267.14l69.1,-40.73l-77.7,20.32l8.6,20.41z" fill="#f3f7f7" id="#path4488"/>
  <path d="m355.94,214.76l26.25,12.18l-77.71,20.59l51.46,-32.77z" fill="#484f61" id="#path4703"/>
  <path d="m356.47,215.29l-14.23,-18.24l-38.82,51.01l53.05,-32.77z" fill="#606873" id="#path4705"/>
  <path d="m319.17,188.84l23.87,7.41l-39.35,51.54l15.48,-58.95z" fill="#484f61" id="#path4707"/>
  <path d="m319.43,188.57l-27.18,48.16l11.7,11.33l15.48,-59.49z" fill="#606773" id="#path4718"/>
  <path d="m319.7,188.57l-27.19,48.95l-26.12,-6.39l53.31,-42.56z" fill="#808e99" id="#path4720"/>
  <path d="m431.6,284.86l-24.81,-27.77l43.98,-0.04l-19.17,27.81z" fill="#a4b7bd" id="#path4722"/>
  <path d="m432.13,283.54l-25.6,-26.45l-5.23,51.55l30.83,-25.1z" fill="#c0cfd6" id="#path4724"/>
  <path d="m371.02,251.8l36.03,5.03l-5.48,52.33l-30.55,-57.36z" fill="#cfdce4" id="#path4726"/>
  <path d="m371.55,251.27l-4.97,34.39l35.78,22.71l-30.81,-57.1z" fill="#c0cfd6" id="#path4728"/>
  <path d="m372.08,251l-4.44,35.99l-39.88,-1.9l44.32,-34.09z" fill="#a7b6bd" id="#path4730"/>
  <path d="m372.61,250.74l-60.26,17.2l15.94,17.68l44.32,-34.88z" fill="#352f2f" id="#path4732"/>
  <path d="m369.96,322.69l-3.38,-37.03l36.04,21.92l-32.66,15.11z" fill="#a4b7bd" id="#path4791"/>
  <path d="m369.96,322.69l-2.32,-36.76l-38.82,-1.1l41.14,37.86z" fill="#c0cfd6" id="#path4793"/>
  <path d="m371.02,322.43l-46.5,3.71l4.03,-41.31l42.47,37.6z" fill="#8fa2a9" id="#path4795"/>
  <path d="m295.63,313.43l29.95,12.71l3.77,-41.84l-33.72,29.13z" fill="#a4b6bd" id="#path4806"/>
  <path d="m296.16,314.23l-16.35,-16.93l49.54,-13l-33.19,29.93z" fill="#8fa0a7" id="#path4808"/>
  <path d="m250.66,304.44l-7.35,-10.31l86.04,-9.83l-78.69,20.14z" fill="#060606" id="#path4810"/>
  <path d="m226.58,280.37l16.73,14.29l86.04,-10.36l-102.77,-3.93z" fill="#322c2e" id="#path5485"/>
  <path d="m225.88,281.05l87.26,-13.11l16.47,16.89l-103.73,-3.78z" fill="#060702" id="#path4812"/>
  <path d="m227.11,280.89l84.65,-12.36l-7.54,-21.27l-77.11,33.63z" fill="#cfdce3" id="#path4492"/>
  <path d="m226.85,281.16l65.93,-44.43l12.49,10.53l-78.42,33.9z" fill="#4a5162" id="#path4814"/>
  <path d="m226.85,281.16l67.05,-44.06l-28.04,-5.97l-39.01,50.03z" fill="#606873" id="#path4816"/>
  <path d="m227.11,281.16l-14.97,-4.75l55.31,-45.81l-40.34,50.56z" fill="#808e99" id="#path4836"/>
  <path d="m161.38,289.35l52.45,-13.63l-6.05,-12.95l-46.4,26.58z" fill="#484f5f" id="#path4838"/>
  <path d="m98.42,322.69l4.85,10.21l111.24,-57.6l-116.09,47.39z" fill="#606875" id="#path4840"/>
  <path d="m227.49,280.41l-119.73,61.09l105.81,-65.64l13.92,4.55z" fill="#4e5465" id="#path4851"/>
  <path d="m266.55,231.29l-53.48,45.12l-5.29,-13.64l58.77,-31.48z" fill="#5f687d" id="#path4853"/>
  <path d="m163.49,288.3l51.4,-13.11l-116.63,48.42l65.23,-35.31z" fill="#808e99" id="#path4855"/>
  <path d="m109.27,341.39l-6.75,-9.62l111.99,-56.47l-105.24,66.09z" fill="#555c67" id="#path4895"/>
  <path d="m355.74,323.81l38.15,23.96l-16.71,-29.34l-21.44,5.38z" fill="#060606" id="#path4897"/>
  <path d="m441.42,348.51l-47.53,-0.74l-9.97,-14.75l57.5,15.49z" fill="#060606" id="#path4921"/>
  <path d="m370.71,356.36l23.18,-8.59l-13.34,-10.64l-9.84,19.23z" fill="#060606" id="#path4923"/>
  <path d="m324.32,326.81l14.58,26.57l5.74,-29.34l-20.32,2.77z" fill="#060606" id="#path4925"/>
  <path d="m325.07,326.43l15.32,28.07l-15.96,-10.63l0.64,-17.44z" fill="#060606" id="#path4927"/>
  <path d="m394.28,392.65l-52.39,-49.75l-17.46,0.97l69.85,48.78z" fill="#060606" id="#path4929"/>
  <path d="m393.16,392.65l-51.27,-49.75l64.1,43.99l-12.83,5.76z" fill="#060606" id="#path4931"/>
  <path d="m392.03,390.78l50.87,3l-48.88,-13.25l-1.99,10.25z" fill="#060606" id="#path4933"/>
  <path d="m396.15,391.15l-29.57,12.36l17.34,-18.87l12.23,6.51z" fill="#060606" id="#path4935"/>
 </g>
</svg>