<?xml version="1.0"?>
<svg width="500" height="500" xmlns="http://www.w3.org/2000/svg" xmlns:svg="http://www.w3.org/2000/svg">
 <g class="layer">
  <title>Layer 1</title>
  <path d="m439.67,103.74l37.57,-12.01l-25.65,-23.56l-11.92,35.57z" fill="#393939" id="#path14437"/>
  <path d="m440.74,104.1l-30.64,-29.87l41.67,-6.06l-11.03,35.93z" fill="#464b5e" id="#path14439"/>
  <path d="m410.75,74.32l23.01,-28.19l18.47,22.17l-41.48,6.02z" fill="#5b6073" id="#path4158"/>
  <path d="m434.7,46.49l-31.72,-5.69l7.89,33.84l23.83,-28.15z" fill="#777b87" id="#path4160"/>
  <path d="m403.38,40.68l-41.81,5.43l49.56,28.78l-7.75,-34.21z" fill="#595f6f" id="#path4166"/>
  <path d="m336.91,72.06l74.15,1.83l-49.68,-28.54l-24.47,26.71z" fill="#686c77" id="#path4168"/>
  <path d="m337.08,71.7l73.98,2.19l-37.06,13.88l-36.92,-16.07z" fill="#343a48" id="#path4174"/>
  <path d="m406.31,97.56l4.75,-23.67l-39.21,14.27l34.46,9.4z" fill="#464d5a" id="#path4176"/>
  <path d="m405.66,96.96l5.4,-23.07l30.67,29.39l-36.07,-6.32z" fill="#5b6073" id="#path4178"/>
  <path d="m409.45,65.94l-7.35,3.4l9.03,5.55l-1.68,-8.95z" fill="#151515" id="#path4213"/>
  <path d="m400.61,73.77l1.74,-4.68l8.78,5.8l-10.52,-1.12z" fill="#151515" id="#path4215"/>
  <path d="m400.61,73.26l0.98,7.19l9.54,-5.56l-10.52,-1.63z" fill="#151515" id="#path4217"/>
  <path d="m408.56,84.62l-7.09,-4.29l9.66,-5.56l-2.57,9.85z" fill="#151515" id="#path4219"/>
  <path d="m408.31,84.5l8.31,-2.41l-5.62,-7.58l-2.69,9.99z" fill="#151515" id="#path4221"/>
  <path d="m409.45,65.94l7.42,2.64l-6.12,6.94l-1.3,-9.58z" fill="#151515" id="#path4223"/>
  <path d="m418.79,74.65l-1.92,-6.07l-5.74,6.31l7.66,-0.24z" fill="#151515" id="#path4225"/>
  <path d="m418.79,74.65l-2.3,7.7l-5.36,-7.46l7.66,-0.24z" fill="#151515" id="#path4227"/>
  <path d="m337.98,70.99l-33.35,40.75l29.02,1.03l4.33,-41.78z" fill="#a22920" id="#path4229"/>
  <path d="m337.98,70.99l34.33,46.65l-40.81,-4.51l6.48,-42.14z" fill="#d8503a" id="#path4231"/>
  <path d="m337.98,71.34l45.19,19.58l-11.18,26.5l-34.01,-46.08z" fill="#c63f2b" id="#path4233"/>
  <path d="m371.43,117.52l10.37,-27.21l59.26,13.09l-69.63,14.12z" fill="#eb654a" id="#path4235"/>
  <path d="m369.93,117.27l71.57,-13.91l10.72,46.56l-82.29,-32.65z" fill="#d8503a" id="#path4237"/>
  <path d="m296.26,143.76l9.27,-32.37l-26.61,30.81l17.34,1.56z" fill="#6c6876" id="#path4387"/>
  <path d="m296.08,143.76l9.09,-32.55l26.61,1.35l-35.7,31.2z" fill="#b2b1b9" id="#path4389"/>
  <path d="m295.01,144.29l76.23,-27.55l-39.64,-4l-36.59,31.55z" fill="#8a8991" id="#path4391"/>
  <path d="m296.26,143.76l-59.3,47.63l41.96,-49.19l17.34,1.56z" fill="#b2b1b7" id="#path4399"/>
  <path d="m296.26,143.76l-59.3,47.63l35.53,4.38l23.77,-52.01z" fill="#8a8895" id="#path4401"/>
  <path d="m296.26,143.76l76.77,-28.09l-100.54,80.1l23.77,-52.01z" fill="#b2b1b7" id="#path4403"/>
  <path d="m351.97,174.47l19.99,-58.44l-99.47,79.74l79.48,-21.3z" fill="#8a8895" id="#path4405"/>
  <path d="m351.97,174.47l19.27,-58.44l31.96,53.31l-51.23,5.13z" fill="#a22920" id="#path4407"/>
  <path d="m402.86,169.65l-31.98,-53.26l81.25,33.31l-49.27,19.95z" fill="#c63f2b" id="#path4409"/>
  <path d="m402.86,169.65l48.9,-21.44l0.37,50.06l-49.27,-28.62z" fill="#d8503a" id="#path4514"/>
  <path d="m452.15,197.87l-49.32,-29.3l38.55,74.84l10.77,-45.54z" fill="#c63f2b" id="#path4516"/>
  <path d="m388.93,205.37l13.56,-37.8l38.53,74.05l-52.09,-36.25z" fill="#d8503a" id="#path4518"/>
  <path d="m403.93,168.22l-16.08,40.42l-38.01,-34.97l54.09,-5.45z" fill="#b23227" id="#path4520"/>
  <path d="m348.31,223.7l40.25,-17.92l-36.94,-32.46l-3.31,50.38z" fill="#a82822" id="#path4522"/>
  <path d="m259.39,267.27l89.53,-42.91l3.42,-51.4l-92.95,94.31z" fill="#3e3c3e" id="#path4524"/>
  <path d="m260.1,266.55l3.68,-37.26l89.27,-56.69l-92.95,93.95z" fill="#1c202c" id="#path4526"/>
  <path d="m352.96,172.98l-81.54,22.8l-8.8,35.56l90.34,-58.36z" fill="#b2b1b7" id="#path4528"/>
  <path d="m264.32,230.31l7.1,-34.52l-51.23,61.81l44.13,-27.29z" fill="#9d9ca3" id="#path4548"/>
  <path d="m272.6,195.48l-93.41,73.88l41.34,-11.69l52.07,-62.19z" fill="#8a8991" id="#path4550"/>
  <path d="m272.6,195.48l-35.47,-4.34l-57.91,78.16l93.38,-73.82z" fill="#6c6877" id="#path4490"/>
  <path d="m417.22,273.55l24.67,-31.73l-53.4,-37.07l28.73,68.8z" fill="#c3402b" id="#path4701"/>
  <path d="m417.72,273.8l-41.24,-7.23l12.27,-61.31l28.97,68.54z" fill="#b23227" id="#path4488"/>
  <path d="m348.02,223.04l28.71,43.53l12.52,-62.07l-41.23,18.54z" fill="#c63f2b" id="#path4703"/>
  <path d="m348.28,223.04l28.91,42.92l-36.17,22.89l7.26,-65.81z" fill="#a22920" id="#path4705"/>
  <path d="m341.46,289.21l6.99,-66.08l-60.97,59.91l53.98,6.17z" fill="#9e989a" id="#path4707"/>
  <path d="m259.13,266.99l89.32,-43.86l-60.97,59.91l-28.35,-16.05z" fill="#1c202c" id="#path4718"/>
  <path d="m260.16,266.06l-27.73,27.27l55.67,-10.47l-27.94,-16.8z" fill="#423c3e" id="#path4720"/>
  <path d="m260.24,266.12l-25.76,27.04l-90.44,28.77l116.2,-55.81z" fill="#1d1f2e" id="#path4722"/>
  <path d="m260.24,266.35l-103.22,33.55l-12.67,22.39l115.89,-55.94z" fill="#3e3c3d" id="#path4724"/>
  <path d="m260.19,266.38l-103.39,33.74l28.65,-17.08l74.74,-16.66z" fill="#1b1e2e" id="#path4726"/>
  <path d="m260.69,266.37l-80.94,2.72l5.7,13.95l75.24,-16.67z" fill="#3e3c3d" id="#path4728"/>
  <path d="m260.72,266.59l-81.73,2.88l41.82,-12.44l39.91,9.56z" fill="#2d2f2d" id="#path4730"/>
  <path d="m260.61,267.56l4.69,-38.27l-45.08,27.91l40.39,10.36z" fill="#3c3c3c" id="#path4732"/>
  <path d="m417.72,273.8l-41.95,-9.02l17.26,36.19l24.69,-27.17z" fill="#a22920" id="#path4791"/>
  <path d="m376.71,265.65l16.44,35.01l-40.73,16.58l24.29,-51.59z" fill="#b03327" id="#path4793"/>
  <path d="m353.23,316.91l23.5,-51.1l-35.13,22.51l11.63,28.59z" fill="#b93c38" id="#path4795"/>
  <path d="m352.98,316.91l-30.79,6.08l19.67,-34.92l11.12,28.84z" fill="#bfbfbf" id="#path4806"/>
  <path d="m275.38,325.71l48.08,-2.46l18.4,-35.18l-66.48,37.64z" fill="#acaaab" id="#path4808"/>
  <path d="m278.06,325l9.54,-42.16l54.26,5.23l-63.8,36.93z" fill="#918b8d" id="#path4810"/>
  <path d="m259.54,324.49l28.81,-42.41l-10.09,43.83l-18.72,-1.42z" fill="#867d7e" id="#path5485"/>
  <path d="m259.72,324.67l29.39,-42.33l-55.31,10.71l25.92,31.62z" fill="#918b8d" id="#path4812"/>
  <path d="m263.64,325.74l-35.33,3.35l5.49,-36.04l29.84,32.69z" fill="#9a9a9a" id="#path4492"/>
  <path d="m228.64,328.24l-31.4,4.06l36.56,-39.25l-5.16,35.19z" fill="#bfbfbf" id="#path4814"/>
  <path d="m190.07,307.35l7.17,24.95l36.56,-39.25l-43.73,14.3z" fill="#867d7f" id="#path4816"/>
  <path d="m190.07,307.35l7.17,24.95l-119.52,94.5l112.35,-119.45z" fill="#1c202c" id="#path4836"/>
  <path d="m100.93,430.08l96.31,-97.78l-119.52,94.5l23.21,3.28z" fill="#3e3c3d" id="#path4838"/>
  <path d="m100.93,430.08l96.31,-97.78l-89.46,114.45l-6.85,-16.67z" fill="#21202f" id="#path4840"/>
  <path d="m201.44,345.23l-4.2,-12.93l-89.46,114.45l93.66,-101.52z" fill="#bcbbb9" id="#path4851"/>
  <path d="m201.44,345.23l-4.2,-12.93l32.09,-4.09l-27.89,17.02z" fill="#acaaab" id="#path4853"/>
  <path d="m201.44,345.23l26.36,-16.46l34.86,-5.11l-61.22,21.57z" fill="#868385" id="#path4855"/>
  <path d="m277.7,325.35l43.26,-1.92l3.93,7.68l-47.19,-5.76z" fill="#3e3c3d" id="#path4895"/>
  <path d="m323.95,329.82l-16.92,-1.75l33.4,50.18l-16.48,-48.43z" fill="#3e3c3d" id="#path4897"/>
  <path d="m340.38,378.39l6.65,-14.25l-23.75,-35.18l17.1,49.43z" fill="#4e4a4b" id="#path4921"/>
  <path d="m339.49,378.39l55.04,5.04l-47.85,-20l-7.19,14.96z" fill="#4e4a4b" id="#path4923"/>
  <path d="m341.09,378.39l-20.67,6.29l13.76,-16.97l6.91,10.68z" fill="#3e3c3d" id="#path4925"/>
  <path d="m239.84,330.89l20.58,-6.39l23.94,1.43l-44.52,4.96z" fill="#191e31" id="#path4927"/>
  <path d="m261.09,327.14l30.58,39.68l-7.67,-41.25l-22.91,1.57z" fill="#191e31" id="#path4929"/>
  <path d="m299.31,358.03l-7.82,8.43l-7.49,-40.89l15.31,32.46z" fill="#4c4845" id="#path4931"/>
  <path d="m299.31,358.03l-8.71,8.43l35.72,1.61l-27.01,-10.04z" fill="#4c4845" id="#path4933"/>
  <path d="m286.09,358.92l5.4,7.54l-31.6,5.72l26.2,-13.26z" fill="#191e31" id="#path4935"/>
 </g>
</svg>