<?xml version="1.0"?>
<svg width="500" height="500" xmlns="http://www.w3.org/2000/svg" xmlns:svg="http://www.w3.org/2000/svg">
 <g class="layer">
  <title>Layer 1</title>
  <path d="m509.45,78.95l-25.43,-0.6l6.28,-22.05l19.15,22.65z" fill="#6b7681" id="#path14437"/>
  <path d="m488.04,76.86l-10.2,-18.47l-0.07,36.25l10.27,-17.78z" fill="#a8b4c0" id="#path14439"/>
  <path d="m487.8,77.5l-9.96,-19.11l14.03,-19.92l-4.07,39.03z" fill="#dbe0f6" id="#path4158"/>
  <path d="m463.06,22.6l14.78,35.79l14.83,-19.56l-29.61,-16.23z" fill="#8192ac" id="#path4160"/>
  <path d="m463.59,22.6l14.25,35.79l-62.31,-28.49l48.06,-7.3z" fill="#99aac6" id="#path4166"/>
  <path d="m420.66,57.45l57.18,0.94l-61.68,-28.74l4.5,27.8z" fill="#8192ae" id="#path4168"/>
  <path d="m420.66,57.45l-4.82,-27.73l-42.23,56.88l47.05,-29.15z" fill="#a7b9cf" id="#path4174"/>
  <path d="m420.66,57.45l57.56,0.56l-38.7,29.6l-18.86,-30.16z" fill="#a7b9cf" id="#path4176"/>
  <path d="m478.11,94.57l0.11,-36.56l-38.7,29.6l38.59,6.96z" fill="#8498b3" id="#path4178"/>
  <path d="m483.54,53.79l-6.08,4.47l0.82,-7.27l5.26,2.8z" fill="#151515" id="#path4213"/>
  <path d="m483.48,53.68l-6.73,4.58l7.59,-0.58l-0.86,-4z" fill="#151515" id="#path4215"/>
  <path d="m483.32,63.01l-6.48,-5.11l7.59,-0.4l-1.11,5.51z" fill="#151515" id="#path4217"/>
  <path d="m483.54,62.88l-6.08,-4.62l0.1,7.15l5.98,-2.53z" fill="#151515" id="#path4219"/>
  <path d="m471.76,62.61l5.7,-4.35l0.46,7.15l-6.16,-2.8z" fill="#151515" id="#path4221"/>
  <path d="m471.8,63.01l5.66,-4.75l-7.67,-0.44l2.01,5.19z" fill="#151515" id="#path4223"/>
  <path d="m473.23,52.3l4.86,6.23l-8.25,-0.67l3.39,-5.56z" fill="#151515" id="#path4225"/>
  <path d="m473.01,52.34l4.45,5.92l0.95,-7.32l-5.4,1.4z" fill="#151515" id="#path4227"/>
  <path d="m420.66,57.45l18.67,30.61l-65.72,-1.46l47.05,-29.15z" fill="#7f92b0" id="#path4229"/>
  <path d="m360.05,144.07l79.53,-57.02l-65.47,-1.21l-14.06,58.23z" fill="#59908d" id="#path4231"/>
  <path d="m475.72,123.36l-37.9,-36.19l40.59,7l-2.69,29.19z" fill="#78849b" id="#path4233"/>
  <path d="m359.3,143.82l80.16,-57.15l-18.88,57.02l-61.28,0.13z" fill="#7e9c9d" id="#path4235"/>
  <path d="m475.72,123.36l-37.27,-36.56l45.26,75.56l-7.99,-39z" fill="#548481" id="#path4237"/>
  <path d="m419.4,143.06l19.68,-56.39l44.63,75.69l-64.31,-19.3z" fill="#668f91" id="#path4387"/>
  <path d="m419.4,143.06l77.62,82.54l-13.31,-63.24l-64.31,-19.3z" fill="#615770" id="#path4389"/>
  <path d="m419.4,143.06l77.54,81.47l-56.8,-13.6l-20.74,-67.87z" fill="#766983" id="#path4391"/>
  <path d="m419.4,143.06l-10.68,45.4l32.85,22.47l-22.17,-67.87z" fill="#8291ae" id="#path4399"/>
  <path d="m419.4,142.35l-10.68,46.86l-67.15,-10.42l77.83,-36.44z" fill="#a7b9cf" id="#path4401"/>
  <path d="m419.4,142.35l-59.61,0.75l-18.22,35.69l77.83,-36.44z" fill="#8291ae" id="#path4403"/>
  <path d="m309.04,193.42l50.75,-50.32l-15.72,34.97l-35.03,15.35z" fill="#726d84" id="#path4405"/>
  <path d="m374.4,232.35l34.32,-43.89l-67.15,-9.67l32.83,53.56z" fill="#99abc3" id="#path4407"/>
  <path d="m375.47,233.06l-67.82,-39.25l33.92,-15.02l33.9,54.27z" fill="#bdd0df" id="#path4409"/>
  <path d="m373.69,231.99l35.03,-43.53l-1.44,54.61l-33.59,-11.08z" fill="#a7b9cf" id="#path4514"/>
  <path d="m450.11,275.2l-41.39,-86.74l-1.79,54.26l43.18,32.48z" fill="#8192ae" id="#path4516"/>
  <path d="m448.69,275.2l-39.97,-86.74l32.85,21.76l7.12,64.98z" fill="#a7b8cf" id="#path4518"/>
  <path d="m447.97,274.85l45.75,0.03l-52.15,-64.66l6.4,64.63z" fill="#847a93" id="#path4520"/>
  <path d="m496.9,223.78l-3.18,52.18l-52.15,-65.74l55.33,13.56z" fill="#615770" id="#path4522"/>
  <path d="m407.61,243.42l-34.6,-13.18l-5.72,63.19l40.32,-50.01z" fill="#98a9c5" id="#path4524"/>
  <path d="m407.97,241.28l-9.61,57.53l-32.15,-5.74l41.76,-51.79z" fill="#8192ae" id="#path4526"/>
  <path d="m407.61,241.28l-11.03,57.53l52.85,-24.66l-41.82,-32.87z" fill="#a7b9cf" id="#path4528"/>
  <path d="m398.14,396.21l-1.56,-97.4l52.49,-26.81l-50.93,124.21z" fill="#8a9ebc" id="#path4548"/>
  <path d="m397.63,396.72l70.38,-73.62l-19.65,-49.67l-50.73,123.29z" fill="#847a93" id="#path4550"/>
  <path d="m493.69,274.13l-25.68,48.97l-20.37,-50.38l46.05,1.41z" fill="#766983" id="#path4490"/>
  <path d="m344.76,275.56l29.47,-45.11l-7.05,63.28l-22.42,-18.17z" fill="#dee1f0" id="#path4701"/>
  <path d="m344.76,276.28l28.96,-45.32l-83.58,39.97l54.62,5.35z" fill="#f2f3f8" id="#path4488"/>
  <path d="m268.33,245.56l105.39,-14.6l-83.93,40.33l-21.46,-25.73z" fill="#a7b9cf" id="#path4703"/>
  <path d="m268.69,246.28l105.75,-14.61l-65.01,-38.95l-40.74,53.56z" fill="#dee1f0" id="#path4705"/>
  <path d="m268.69,245.2l-63.67,56.81l86.19,-31.08l-22.52,-25.73z" fill="#dee1f0" id="#path4707"/>
  <path d="m248.69,314.49l-42.41,-12.94l85.29,-30.98l-42.88,43.92z" fill="#bdd0df" id="#path4718"/>
  <path d="m248.69,314.49l42.17,8.61l0.71,-52.53l-42.88,43.92z" fill="#a7b9cf" id="#path4720"/>
  <path d="m346.54,275.92l-56.39,47.18l1.78,-53.95l54.61,6.77z" fill="#dee1f0" id="#path4722"/>
  <path d="m346.54,275.56l-56.39,47.9l40.71,30.69l15.68,-78.59z" fill="#a8b9cd" id="#path4724"/>
  <path d="m345.83,276.28l21.11,17.53l-36.44,61.41l15.33,-78.94z" fill="#bdd0df" id="#path4726"/>
  <path d="m366.19,366.28l1.46,-74.97l-37.15,63.91l35.69,11.06z" fill="#eff4f8" id="#path4728"/>
  <path d="m365.11,365.92l1.83,-74.25l31.77,104.98l-33.6,-30.73z" fill="#847a93" id="#path4730"/>
  <path d="m397.97,297.7l-31.03,-6.39l31.42,104.98l-0.39,-98.59z" fill="#a7b9cf" id="#path4732"/>
  <path d="m365.83,365.2l-9.61,45.04l42.49,-13.59l-32.88,-31.45z" fill="#8291ae" id="#path4791"/>
  <path d="m366.19,364.13l-9.97,46.11l-52.86,2.48l62.83,-48.59z" fill="#99abc3" id="#path4793"/>
  <path d="m366.19,365.92l-34.25,-12.82l-29.3,60.33l63.55,-47.51z" fill="#8093ab" id="#path4795"/>
  <path d="m258.69,407.35l73.96,-54.61l-30.01,60.69l-43.95,-6.08z" fill="#847a93" id="#path4806"/>
  <path d="m258.33,408.78l73.96,-54.97l-120.36,11.41l46.4,43.56z" fill="#8291ae" id="#path4808"/>
  <path d="m259.76,407.7l-44.97,10.04l-3.37,-53.13l48.34,43.09z" fill="#605770" id="#path4810"/>
  <path d="m289.4,322.7l42.18,31.47l-119.65,12.12l77.47,-43.59z" fill="#dee1f0" id="#path5485"/>
  <path d="m289.4,322.7l-42.11,-8.53l-35.36,52.12l77.47,-43.59z" fill="#bdd0df" id="#path4812"/>
  <path d="m152.61,346.63l95.4,-32.82l-35.72,52.48l-59.68,-19.66z" fill="#f2f3f8" id="#path4492"/>
  <path d="m152.61,346.99l96.47,-33.18l-42.51,-13.59l-53.96,46.77z" fill="#dee1f0" id="#path4814"/>
  <path d="m152.61,346.63l-86.54,74.81l146.22,-55.15l-59.68,-19.66z" fill="#dde1f0" id="#path4816"/>
  <path d="m61.25,437.25l-2.89,-13.08l154.53,-58.81l-151.64,71.89z" fill="#becfe1" id="#path4836"/>
  <path d="m45.47,461.28l167.89,-96.04l-157.53,72.61l-10.36,23.43z" fill="#4b5c6c" id="#path4838"/>
  <path d="m55.83,484.13l131.11,-69.25l25.39,-48.89l-156.5,118.14z" fill="#4a5c72" id="#path4840"/>
  <path d="m216.19,416.99l-32.11,-0.32l27.49,-49.67l4.62,49.99z" fill="#687a92" id="#path4851"/>
  <path d="m45.83,460.56l167.53,-95.32l-157.15,120.33l-10.38,-25.01z" fill="#687a92" id="#path4853"/>
  <path d="m380.47,432.35l-24.25,-22.11l42.14,-14.31l-17.89,36.42z" fill="#847a92" id="#path4855"/>
  <path d="m374.76,427.7l34.85,33.97l-25,-38.42l-9.85,4.45z" fill="#b68892" id="#path4895"/>
  <path d="m375.47,427.35l33.41,33.53l-20.34,-5.13l-13.07,-28.4z" fill="#a75c68" id="#path4897"/>
  <path d="m408.81,460.82l31.16,-17.54l-41.61,2.47l10.45,15.07z" fill="#b68892" id="#path4921"/>
  <path d="m408.25,460.87l26.72,7.41l-18.93,-11.63l-7.79,4.22z" fill="#a75c68" id="#path4923"/>
  <path d="m384.94,447.53l-17.29,11.46l21.24,-3.24l-3.95,-8.22z" fill="#a75c68" id="#path4925"/>
  <path d="m326.19,411.28l-7.65,34.5l-16.25,-32.71l23.9,-1.79z" fill="#a75c68" id="#path4927"/>
  <path d="m301.36,441.81l17.36,3.97l-16.08,-32.88l-1.28,28.91z" fill="#b58892" id="#path4929"/>
  <path d="m357.61,432.7l-38.17,5.4l1.95,-6.45l36.22,1.05z" fill="#a75c68" id="#path4931"/>
  <path d="m346.01,456.45l-27.91,-10.85l1.51,-8.42l26.4,19.27z" fill="#a75c68" id="#path4933"/>
  <path d="m303.15,441.99l-1.39,-9.78l-22.69,7.65l24.08,2.13z" fill="#b58892" id="#path4935"/>
 </g>
</svg>